# Blender v2.92.0 OBJ File: 'caillou.blend'
# www.blender.org
mtllib caillou.mtl
o caillou_meshId0_name
v -0.002041 0.001448 0.002118
v -0.000690 0.005125 0.002488
v -0.001327 0.006454 0.001449
v 0.002462 0.007868 0.001095
v 0.001254 0.005337 0.002817
v 0.002930 0.004240 0.002362
v 0.000688 0.009740 -0.000487
v 0.000303 0.009320 -0.001436
v 0.000074 0.009452 -0.001054
v 0.000074 0.009452 -0.001054
v -0.001063 0.008468 -0.000746
v -0.001111 0.008032 0.000450
v 0.000074 0.009452 -0.001054
v -0.000476 0.007568 -0.002269
v -0.001063 0.008468 -0.000746
v 0.002304 0.008304 -0.001285
v 0.002665 0.008486 -0.000153
v 0.002991 0.007325 -0.000388
v 0.000627 0.009586 -0.000166
v 0.002081 0.007978 0.001256
v 0.001518 0.009606 -0.001019
v 0.000877 0.004559 -0.003003
v 0.002337 0.004283 -0.002725
v 0.002291 0.001155 -0.002484
v 0.002337 0.004283 -0.002725
v 0.003801 0.003067 -0.000977
v 0.002291 0.001155 -0.002484
v -0.002202 0.000326 -0.000751
v -0.002231 0.000330 -0.000200
v -0.002212 0.000509 -0.000752
v -0.001327 0.006454 0.001449
v -0.000690 0.005125 0.002488
v 0.000335 0.004890 0.002893
v -0.000080 0.005388 -0.002952
v -0.001502 0.005519 -0.001830
v -0.001252 0.007240 -0.001726
v 0.001518 0.009606 -0.001019
v 0.002061 0.009298 -0.000989
v 0.002304 0.008304 -0.001285
v -0.001612 0.000832 0.002740
v -0.002205 0.000344 0.001768
v -0.001524 0.000352 0.002837
v 0.000773 0.002288 0.003406
v 0.001689 0.002250 0.003425
v 0.001385 0.005011 0.002882
v 0.001689 0.002250 0.003425
v 0.002067 0.001263 0.003496
v 0.003065 0.003489 0.002486
v 0.003870 0.003608 -0.000546
v 0.002632 0.004841 -0.002447
v 0.002991 0.007325 -0.000388
v 0.002462 0.007868 0.001095
v 0.002930 0.004240 0.002362
v 0.002991 0.007325 -0.000388
v 0.002067 0.001263 0.003496
v 0.002014 0.000357 0.003553
v 0.003771 0.000345 0.001790
v 0.003608 0.000525 -0.000955
v 0.003801 0.003067 -0.000977
v 0.003821 0.001039 0.001738
v 0.000367 0.000357 0.003523
v 0.002067 0.001263 0.003496
v 0.000773 0.002288 0.003406
v -0.001612 0.000832 0.002740
v -0.001524 0.000352 0.002837
v 0.000367 0.000357 0.003523
v 0.002014 0.000357 0.003553
v 0.000367 0.000357 0.003523
v 0.001206 0.000313 -0.002608
v 0.003597 0.000325 -0.000886
v 0.002291 0.001155 -0.002484
v 0.003608 0.000525 -0.000955
v 0.001206 0.000313 -0.002608
v -0.000698 0.000315 -0.002335
v -0.000526 0.004375 -0.002783
v -0.000698 0.000315 -0.002335
v -0.002202 0.000326 -0.000751
v -0.002212 0.000509 -0.000752
v -0.001502 0.005519 -0.001830
v -0.002212 0.000509 -0.000752
v -0.002041 0.001448 0.002118
v -0.001612 0.000832 0.002740
v 0.002081 0.007978 0.001256
v 0.001385 0.005011 0.002882
v 0.001518 0.009606 -0.001019
v 0.000627 0.009586 -0.000166
v 0.000688 0.009740 -0.000487
v 0.000303 0.009320 -0.001436
v -0.001252 0.007240 -0.001726
v 0.002061 0.009298 -0.000989
v 0.002462 0.007868 0.001095
v 0.002665 0.008486 -0.000153
v 0.002061 0.009298 -0.000989
v 0.000688 0.009740 -0.000487
v 0.001954 0.000314 -0.002476
v 0.001206 0.000313 -0.002608
v 0.002632 0.004841 -0.002447
v 0.003608 0.000525 -0.000955
v 0.001254 0.005337 0.002817
v 0.002081 0.007978 0.001256
v 0.000627 0.009586 -0.000166
v -0.001111 0.008032 0.000450
v -0.000476 0.007568 -0.002269
v -0.000526 0.004375 -0.002783
v 0.002632 0.004841 -0.002447
v 0.000877 0.004559 -0.003003
v 0.002337 0.004283 -0.002725
v -0.000080 0.005388 -0.002952
v -0.000476 0.007568 -0.002269
v 0.000303 0.009320 -0.001436
v -0.002041 0.001448 0.002118
v 0.001254 0.005337 0.002817
v 0.000335 0.004890 0.002893
v 0.002930 0.004240 0.002362
v 0.001385 0.005011 0.002882
v 0.003801 0.003067 -0.000977
v 0.002304 0.008304 -0.001285
v 0.003065 0.003489 0.002486
v 0.003870 0.003608 -0.000546
v 0.003821 0.001039 0.001738
v 0.002665 0.008486 -0.000153
v 0.003821 0.001039 0.001738
v 0.003065 0.003489 0.002486
v 0.003870 0.003608 -0.000546
v 0.003771 0.000345 0.001790
v 0.003597 0.000325 -0.000886
v 0.002014 0.000357 0.003553
v 0.001689 0.002250 0.003425
v 0.000773 0.002288 0.003406
v 0.000335 0.004890 0.002893
v -0.000690 0.005125 0.002488
v -0.002205 0.000344 0.001768
v -0.002231 0.000330 -0.000200
v -0.001524 0.000352 0.002837
v -0.002202 0.000326 -0.000751
v -0.000698 0.000315 -0.002335
v 0.001954 0.000314 -0.002476
v 0.003597 0.000325 -0.000886
v 0.003771 0.000345 0.001790
v 0.001954 0.000314 -0.002476
v -0.000080 0.005388 -0.002952
v 0.000877 0.004559 -0.003003
v -0.001502 0.005519 -0.001830
v -0.000526 0.004375 -0.002783
v -0.002205 0.000344 0.001768
v -0.002231 0.000330 -0.000200
v -0.001327 0.006454 0.001449
v -0.001111 0.008032 0.000450
v -0.001252 0.007240 -0.001726
v -0.001063 0.008468 -0.000746
vt 0.544797 0.330796
vt 0.492553 0.185698
vt 0.542342 0.138815
vt 0.371164 0.051046
vt 0.395947 0.161519
vt 0.315802 0.184356
vt 0.880723 0.689490
vt 0.847734 0.662876
vt 0.864317 0.653898
vt 0.864317 0.653898
vt 0.880542 0.595416
vt 0.921897 0.599381
vt 0.105502 0.009584
vt 0.086345 0.083830
vt 0.047333 0.048507
vt 0.646854 0.334262
vt 0.607601 0.326569
vt 0.630411 0.286634
vt 0.892060 0.688005
vt 0.921897 0.767197
vt 0.853326 0.728186
vt 0.163365 0.193781
vt 0.236780 0.199564
vt 0.237653 0.315458
vt 0.236780 0.199564
vt 0.304238 0.237017
vt 0.237653 0.315458
vt 0.513898 0.383338
vt 0.534191 0.380795
vt 0.514789 0.390104
vt 0.542342 0.138815
vt 0.492553 0.185698
vt 0.437106 0.186537
vt 0.113089 0.165357
vt 0.034654 0.161734
vt 0.044427 0.096839
vt 0.178780 0.000000
vt 0.206763 0.009958
vt 0.222082 0.046927
vt 0.513543 0.351893
vt 0.551816 0.371159
vt 0.505834 0.368996
vt 0.397417 0.279604
vt 0.352928 0.272702
vt 0.387314 0.172463
vt 0.352928 0.272702
vt 0.329210 0.305533
vt 0.304238 0.211029
vt 0.681447 0.152896
vt 0.726710 0.223112
vt 0.630411 0.286634
vt 0.568906 0.291622
vt 0.566022 0.146911
vt 0.630411 0.286634
vt 0.551816 0.032505
vt 0.559049 0.000000
vt 0.633212 0.011633
vt 0.726710 0.049344
vt 0.701843 0.138804
vt 0.628037 0.036629
vt 0.406370 0.354285
vt 0.329210 0.305533
vt 0.397417 0.279604
vt 0.513543 0.351893
vt 0.505834 0.368996
vt 0.406370 0.354285
vt 0.228899 0.446563
vt 0.226278 0.531920
vt 0.000000 0.484226
vt 0.297260 0.339275
vt 0.237653 0.315458
vt 0.297884 0.331960
vt 0.184111 0.349896
vt 0.085590 0.354235
vt 0.090913 0.203827
vt 0.085590 0.354235
vt 0.000784 0.354235
vt 0.000000 0.347478
vt 0.499817 0.576924
vt 0.514789 0.390104
vt 0.624767 0.409284
vt 0.513543 0.351893
vt 0.387992 0.051193
vt 0.387314 0.172463
vt 0.853326 0.728186
vt 0.892060 0.688005
vt 0.880723 0.689490
vt 0.119342 0.014763
vt 0.044427 0.096839
vt 0.624268 0.367235
vt 0.912036 0.785348
vt 0.868391 0.789400
vt 0.847877 0.755328
vt 0.880723 0.689490
vt 0.221605 0.347593
vt 0.184111 0.349896
vt 0.249628 0.177405
vt 0.297884 0.331960
vt 0.395947 0.161519
vt 0.387992 0.051193
vt 0.483180 0.000000
vt 0.551816 0.075168
vt 0.086345 0.083830
vt 0.090913 0.203827
vt 0.249628 0.177405
vt 0.163365 0.193781
vt 0.236780 0.199564
vt 0.113089 0.165357
vt 0.086345 0.083830
vt 0.119342 0.014763
vt 0.544797 0.330796
vt 0.395947 0.161519
vt 0.437106 0.186537
vt 0.315802 0.184356
vt 0.387314 0.172463
vt 0.701843 0.138804
vt 0.646854 0.334262
vt 0.570562 0.118349
vt 0.681447 0.152896
vt 0.628037 0.036629
vt 0.607601 0.326569
vt 0.628037 0.036629
vt 0.570562 0.118349
vt 0.681447 0.152896
vt 0.633212 0.011633
vt 0.726324 0.041526
vt 0.326791 0.339317
vt 0.352928 0.272702
vt 0.397417 0.279604
vt 0.437106 0.186537
vt 0.492553 0.185698
vt 0.158897 0.664076
vt 0.086004 0.664077
vt 0.199139 0.629514
vt 0.065607 0.662171
vt 0.008355 0.583132
vt 0.005558 0.445522
vt 0.065982 0.361429
vt 0.165260 0.354235
vt 0.221605 0.347593
vt 0.113089 0.165357
vt 0.163365 0.193781
vt 0.034654 0.161734
vt 0.090913 0.203827
vt 0.606473 0.371159
vt 0.534191 0.380795
vt 0.624767 0.593826
vt 0.595821 0.656074
vt 0.512097 0.638662
vt 0.554054 0.678024
vn -0.7082 0.1919 0.6795
vn 0.4497 0.3458 0.8235
vn -0.0890 0.9235 -0.3731
vn -0.5929 0.7640 0.2545
vn -0.6232 0.5441 -0.5618
vn 0.8879 0.3164 -0.3340
vn 0.4200 0.7840 0.4571
vn 0.1726 -0.0781 -0.9819
vn 0.7435 -0.0621 -0.6658
vn -0.9970 -0.0572 -0.0528
vn -0.1969 0.5437 0.8159
vn -0.6063 0.1356 -0.7836
vn 0.2366 0.3293 -0.9141
vn -0.8426 -0.0457 0.5366
vn -0.0123 0.1917 0.9814
vn 0.4077 0.2193 0.8864
vn 0.8768 0.2255 -0.4247
vn 0.9425 0.2119 0.2585
vn 0.7081 0.0029 0.7062
vn 0.9950 -0.0761 -0.0642
vn -0.0180 0.0640 0.9978
vn -0.3383 0.1272 0.9324
vn 0.0000 -1.0000 0.0072
vn 0.6698 -0.2748 -0.6898
vn -0.1413 -0.1027 -0.9846
vn -0.7246 -0.0452 -0.6877
vn -0.9897 0.1429 0.0121
vn -0.0180 0.0639 0.9978
vn -0.3383 0.1273 0.9324
usemtl DefaultMaterial
s off
f 1/1/1 2/2/1 3/3/1
f 4/4/2 5/5/2 6/6/2
f 7/7/3 8/8/3 9/9/3
f 10/10/4 11/11/4 12/12/4
f 13/13/5 14/14/5 15/15/5
f 16/16/6 17/17/6 18/18/6
f 19/19/7 20/20/7 21/21/7
f 22/22/8 23/23/8 24/24/8
f 25/25/9 26/26/9 27/27/9
f 28/28/10 29/29/10 30/30/10
f 31/31/11 32/32/11 33/33/11
f 34/34/12 35/35/12 36/36/12
f 37/37/13 38/38/13 39/39/13
f 40/40/14 41/41/14 42/42/14
f 43/43/15 44/44/15 45/45/15
f 46/46/16 47/47/16 48/48/16
f 49/49/17 50/50/17 51/51/17
f 52/52/18 53/53/18 54/54/18
f 55/55/19 56/56/19 57/57/19
f 58/58/20 59/59/20 60/60/20
f 61/61/21 62/62/21 63/63/21
f 64/64/22 65/65/22 66/66/22
f 67/67/23 68/68/23 69/69/23
f 70/70/24 71/71/24 72/72/24
f 73/73/25 74/74/25 75/75/25
f 76/76/26 77/77/26 78/78/26
f 79/79/27 80/80/27 81/81/27
f 1/1/1 82/82/1 2/2/1
f 83/83/2 5/5/2 4/4/2
f 5/5/2 84/84/2 6/6/2
f 7/7/3 85/85/3 8/8/3
f 12/12/4 86/86/4 10/10/4
f 86/86/4 87/87/4 10/10/4
f 88/88/5 14/14/5 13/13/5
f 14/14/5 89/89/5 15/15/5
f 16/16/6 90/90/6 17/17/6
f 20/20/7 91/91/7 92/92/7
f 92/92/7 93/93/7 20/20/7
f 93/93/7 21/21/7 20/20/7
f 21/21/7 94/94/7 19/19/7
f 95/95/8 96/96/8 24/24/8
f 96/96/8 22/22/8 24/24/8
f 97/97/9 26/26/9 25/25/9
f 26/26/9 98/98/9 27/27/9
f 33/33/11 99/99/11 31/31/11
f 99/99/11 100/100/11 31/31/11
f 100/100/11 101/101/11 102/102/11
f 102/102/11 31/31/11 100/100/11
f 36/36/12 103/103/12 34/34/12
f 34/34/12 104/104/12 35/35/12
f 39/39/13 105/105/13 106/106/13
f 105/105/13 107/107/13 106/106/13
f 106/106/13 108/108/13 39/39/13
f 108/108/13 109/109/13 39/39/13
f 109/109/13 110/110/13 39/39/13
f 110/110/13 37/37/13 39/39/13
f 40/40/14 111/111/14 41/41/14
f 112/112/15 113/113/15 45/45/15
f 113/113/15 43/43/15 45/45/15
f 48/48/16 114/114/16 46/46/16
f 114/114/16 115/115/16 46/46/16
f 116/116/17 50/50/17 49/49/17
f 50/50/17 117/117/17 51/51/17
f 53/53/18 118/118/18 119/119/18
f 118/118/18 120/120/18 119/119/18
f 119/119/18 54/54/18 53/53/18
f 54/54/18 121/121/18 52/52/18
f 57/57/19 122/122/19 55/55/19
f 122/122/19 123/123/19 55/55/19
f 59/59/20 124/124/20 60/60/20
f 60/60/20 125/125/20 126/126/20
f 126/126/20 58/58/20 60/60/20
f 127/127/21 62/62/21 61/61/21
f 62/62/28 128/128/28 63/63/28
f 66/66/29 129/129/29 64/64/29
f 129/129/29 130/130/29 131/131/29
f 64/64/29 129/129/29 131/131/29
f 132/132/23 133/133/23 134/134/23
f 133/133/23 135/135/23 136/136/23
f 134/134/23 133/133/23 136/136/23
f 136/136/23 69/69/23 68/68/23
f 134/134/23 136/136/23 68/68/23
f 69/69/23 137/137/23 67/67/23
f 137/137/23 138/138/23 67/67/23
f 138/138/23 139/139/23 67/67/23
f 70/70/24 140/140/24 71/71/24
f 141/141/25 142/142/25 75/75/25
f 142/142/25 73/73/25 75/75/25
f 78/78/26 143/143/26 144/144/26
f 144/144/26 76/76/26 78/78/26
f 145/145/27 81/81/27 146/146/27
f 81/81/27 147/147/27 79/79/27
f 146/146/27 81/81/27 80/80/27
f 147/147/27 148/148/27 149/149/27
f 148/148/27 150/150/27 149/149/27
f 149/149/27 79/79/27 147/147/27
